<svg width="757" height="575" viewBox="0 0 757 575" fill="none"
    xmlns="http://www.w3.org/2000/svg">
    <path d="M-115 574C6.22614 563.987 247.373 496.552 242.149 306.916C236.926 117.28 582.54 1.9569 756 -32" stroke="#7F829E" stroke-width="0.5"/>
    <path d="M-206 483C-84.7739 472.987 156.373 405.552 151.149 215.916C145.926 26.2797 491.54 -89.0431 665 -123" stroke="#7F829E" stroke-width="0.5"/>
    <path d="M-183 505C-61.7739 495.004 179.373 427.68 174.149 238.357C168.926 49.0334 514.54 -66.0991 688 -100" stroke="#7F829E" stroke-width="0.5"/>
    <path d="M-137 551C-15.913 541.004 224.957 473.68 219.739 284.357C214.522 95.0334 559.739 -20.0991 733 -54" stroke="#7F829E" stroke-width="0.5"/>
    <path d="M-160 528C-38.913 518.004 201.957 450.68 196.739 261.357C191.522 72.0334 536.739 -43.0991 710 -77" stroke="#7F829E" stroke-width="0.5"/>
</svg>
